<?xml version="1.0" encoding="utf-8"?>
<!-- Generator: Adobe Illustrator 18.0.0, SVG Export Plug-In . SVG Version: 6.00 Build 0)  -->
<!DOCTYPE svg PUBLIC "-//W3C//DTD SVG 1.1//EN" "http://www.w3.org/Graphics/SVG/1.1/DTD/svg11.dtd">
<svg version="1.1" id="Laag_1" xmlns="http://www.w3.org/2000/svg" xmlns:xlink="http://www.w3.org/1999/xlink" x="0px" y="0px"
	 viewBox="0 0 256 256" enable-background="new 0 0 256 256" xml:space="preserve">
<g id="definitief_2_">
	<g id="Onderlaag_voor_Slagschaduw_1_">
		<path fill="#FFFFFF" stroke="#FFFFFF" stroke-width="8.612" stroke-linejoin="round" d="M67.8,53.7l-2.9,8.9c0,0,2.3,2.8,2.9,16.5
			c0.6,13.7-1.2-26.9,4.3-29.4c5.5-2.5-5.5,2.5-5.5,2.5"/>
		<g id="ARM_10_">
			<path fill="#FFED00" d="M193.9,94.1c0,0,17.2-15.7,15.3-25.3C207.2,59.1,192.3,62.1,193.9,94.1z"/>
			<path fill="#FFFFFF" d="M204.4,63.9c2.3,0,4.2,1.8,4.8,4.9c1.9,9.7-15.3,25.3-15.3,25.3C192.8,72.3,199.4,63.9,204.4,63.9
				 M204.4,54.1c-4.2,0-8.4,1.9-11.7,5.4c-4.5,4.7-9.6,14.6-8.6,35.2c0.2,3.8,2.5,7.2,6.1,8.6c1.2,0.5,2.5,0.7,3.8,0.7
				c2.4,0,4.8-0.9,6.6-2.6c0.2-0.2,5-4.5,9.5-10.2c7.4-9.3,10.3-17.3,8.9-24.4C217.3,59.2,211.5,54.1,204.4,54.1L204.4,54.1z"/>
			<path d="M204.4,63.9c2.3,0,4.2,1.8,4.8,4.9c1.9,9.7-15.3,25.3-15.3,25.3C192.8,72.3,199.4,63.9,204.4,63.9 M204.4,59
				c-2.9,0-5.8,1.4-8.1,3.8c-5.4,5.7-8,16.9-7.3,31.5c0.1,1.9,1.3,3.6,3,4.3c0.6,0.3,1.2,0.4,1.9,0.4c1.2,0,2.4-0.4,3.3-1.3
				c3.2-2.9,19.2-18.1,16.8-29.9C212.9,62.6,209.1,59,204.4,59L204.4,59z"/>
		</g>
		<g id="ARM_9_">
			<path fill="#FFED00" d="M61.6,94.1c0,0-17.2-15.7-15.3-25.3C48.2,59.1,63.1,62.1,61.6,94.1z"/>
			<path fill="#FFFFFF" d="M51.1,63.9c4.9,0,11.6,8.3,10.5,30.2c0,0-17.2-15.7-15.3-25.3C46.9,65.7,48.8,63.9,51.1,63.9 M51.1,54.1
				C51.1,54.1,51.1,54.1,51.1,54.1c-7.1,0-12.9,5.1-14.5,12.8c-1.4,7.1,1.5,15.1,8.9,24.4c4.5,5.7,9.3,10,9.5,10.2
				c1.8,1.7,4.2,2.6,6.6,2.6c1.3,0,2.5-0.2,3.8-0.7c3.5-1.5,5.9-4.8,6.1-8.6c1-20.5-4.1-30.4-8.6-35.2C59.5,56,55.3,54.1,51.1,54.1
				L51.1,54.1z"/>
			<path d="M51.1,63.9c4.9,0,11.6,8.3,10.5,30.2c0,0-17.2-15.7-15.3-25.3C46.9,65.7,48.8,63.9,51.1,63.9 M51.1,59
				C51.1,59,51.1,59,51.1,59c-4.7,0-8.6,3.5-9.6,8.8c-2.4,11.8,13.6,27,16.8,29.9c0.9,0.8,2.1,1.3,3.3,1.3c0.6,0,1.3-0.1,1.9-0.4
				c1.8-0.7,2.9-2.4,3-4.3c0.7-14.6-1.9-25.8-7.3-31.5C56.9,60.4,54,59,51.1,59L51.1,59z"/>
		</g>
		<g>
			<path fill="#FFED00" d="M186,186l-8.7-10.4v-5.4V67.4c0,0,0.6-16-12.9-16c3.4-1.5,2.5-10.1,2.5-10.1
				c-2.8,6.1-11.3,10.1-11.3,10.1c4.6-4.3,3.1-10.1,3.1-10.1c-4.3,6.2-15.4,10.1-15.4,10.1s-33.2,0-51.9,0
				c-14.8,0.3-13.8,16-13.8,16v110.1l-7.1,8.5c-4.5,6-3,11.2,0.8,14.4c4.4,3.6,9.5,3.7,14.3-1.8l8.1-9.7h3.5h60.2h5.4l8.1,9.7
				c4.8,5.5,9.9,5.4,14.3,1.8C189,197.2,190.5,192,186,186z"/>
			<path fill="#FFFFFF" d="M166.9,41.2c0,0,0.9,8.6-2.5,10.1c13.6,0,12.9,16,12.9,16v102.7v5.4L186,186c4.5,6,3,11.2-0.8,14.4
				c-2,1.6-4.1,2.5-6.3,2.5c-2.7,0-5.4-1.3-8-4.3l-8.1-9.7h-5.4H97.3h-3.5l-8.1,9.7c-2.6,3-5.4,4.3-8,4.3c-2.2,0-4.3-0.9-6.3-2.5
				c-3.8-3.2-5.3-8.4-0.8-14.4l7.1-8.5V67.4c0,0-1-15.7,13.8-16c18.8,0,51.9,0,51.9,0s11.1-4,15.4-10.1c0,0,1.5,5.8-3.1,10.1
				C155.6,51.4,164.2,47.3,166.9,41.2 M166.9,31.4c-1.4,0-2.8,0.3-4.1,0.9c-0.7-0.3-1.5-0.6-2.3-0.7c-0.6-0.1-1.2-0.2-1.8-0.2
				c-3.2,0-6.2,1.5-8.1,4.2c-1.4,2-5.8,4.5-9.2,6h-50c-0.1,0-0.1,0-0.2,0c-8.7,0.2-14,4-16.9,7.2c-6.5,7-6.6,16.6-6.5,18.9v106.4
				l-4.8,5.7c-0.1,0.1-0.2,0.2-0.3,0.4c-8.3,11-4.8,21.9,2.4,27.8c3.8,3.2,8.1,4.8,12.6,4.8c4,0,9.9-1.3,15.4-7.7
				c0.1-0.1,0.1-0.1,0.2-0.2l5.1-6.2h59.1h0.8l5.1,6.2c0.1,0.1,0.1,0.1,0.2,0.2c5.6,6.4,11.5,7.7,15.4,7.7c4.4,0,8.8-1.7,12.6-4.8
				c7.1-5.9,10.6-16.8,2.4-27.8c-0.1-0.1-0.2-0.3-0.3-0.4l-6.4-7.7v-1.8V67.6c0.1-2.5-0.1-12.5-6.9-19.6c-1-1.1-2.1-2-3.3-2.8
				c0.1-1.9,0-3.7-0.2-4.9c-0.5-4.4-3.8-8-8.2-8.7C168,31.4,167.5,31.4,166.9,31.4L166.9,31.4z"/>
			<path d="M166.9,41.2c0,0,0.9,8.6-2.5,10.1c13.6,0,12.9,16,12.9,16v102.7v5.4L186,186c4.5,6,3,11.2-0.8,14.4
				c-2,1.6-4.1,2.5-6.3,2.5c-2.7,0-5.4-1.3-8-4.3l-8.1-9.7h-5.4H97.3h-3.5l-8.1,9.7c-2.6,3-5.4,4.3-8,4.3c-2.2,0-4.3-0.9-6.3-2.5
				c-3.8-3.2-5.3-8.4-0.8-14.4l7.1-8.5V67.4c0,0-1-15.7,13.8-16c18.8,0,51.9,0,51.9,0s11.1-4,15.4-10.1c0,0,1.5,5.8-3.1,10.1
				C155.6,51.4,164.2,47.3,166.9,41.2 M166.9,36.3c-1.6,0-3.2,0.8-4.1,2.2c-0.7-1.1-1.9-1.9-3.2-2.1c-0.3-0.1-0.6-0.1-0.9-0.1
				c-1.6,0-3.1,0.8-4,2.1c-2.5,3.6-9.2,6.8-12.3,8.1h-51c0,0-0.1,0-0.1,0c-5.5,0.1-10.1,2-13.4,5.6c-5.4,5.8-5.3,13.9-5.2,15.5
				v108.2l-5.9,7.1c-0.1,0.1-0.1,0.1-0.1,0.2c-6.8,9-3.4,17,1.6,21.1c2.9,2.4,6.1,3.7,9.4,3.7c2.9,0,7.4-1,11.7-6
				c0,0,0.1-0.1,0.1-0.1l6.6-7.9h1.2h60.2h3.1l6.6,7.9c0,0,0.1,0.1,0.1,0.1c4.4,5,8.8,6,11.7,6c3.3,0,6.5-1.3,9.4-3.7
				c4.9-4.1,8.3-12.1,1.6-21.1c0-0.1-0.1-0.1-0.2-0.2l-7.5-9.1v-3.6V67.5c0-1.5,0.1-10.3-5.6-16.1c-1.4-1.5-3.1-2.7-5-3.5
				c0.5-2.8,0.3-5.5,0.2-7.2c-0.2-2.2-1.9-4-4.1-4.3C167.5,36.3,167.2,36.3,166.9,36.3L166.9,36.3z"/>
		</g>
		<g id="pet_6_">
			<g>
				<g>
					<line fill="#831F82" x1="96.1" y1="21.8" x2="83.8" y2="34.4"/>
					
						<line fill="none" stroke="#FFFFFF" stroke-width="14.7633" stroke-linecap="round" stroke-linejoin="round" x1="96.1" y1="21.8" x2="83.8" y2="34.4"/>
				</g>
				<g>
					<path fill="#831F82" d="M83.8,34.4c-5.3-3.7-13.3-7.1-20.1-0.7c-6.8,6.4-5.2,15.9,0.4,20.7L83.8,34.4z"/>
					<path fill="#FFFFFF" d="M72.3,30.1c4.2,0,8.3,2.1,11.5,4.3l-19.7,20c-5.6-4.8-7.3-14.3-0.4-20.7C66.4,31.1,69.4,30.1,72.3,30.1
						 M72.3,22.7c-5.1,0-9.8,1.9-13.7,5.6c-4.5,4.2-6.9,9.8-6.8,15.8C52,50.2,54.7,56,59.3,60c1.4,1.2,3.1,1.8,4.8,1.8
						c1.9,0,3.8-0.7,5.3-2.2l19.7-20c1.5-1.6,2.3-3.7,2.1-5.9c-0.2-2.2-1.4-4.1-3.1-5.4C82.6,24.6,77.4,22.7,72.3,22.7L72.3,22.7z"
						/>
					<path fill="none" stroke="#000000" stroke-width="3.6908" stroke-linejoin="round" d="M83.8,34.4c-5.3-3.7-13.3-7.1-20.1-0.7
						c-6.8,6.4-5.2,15.9,0.4,20.7L83.8,34.4z"/>
				</g>
				
					<line fill="#831F82" stroke="#000000" stroke-width="3.6908" stroke-linecap="round" stroke-linejoin="round" x1="83.8" y1="34.4" x2="96.1" y2="21.8"/>
			</g>
		</g>
		<path fill="none" stroke="#000000" stroke-width="3.6908" stroke-linecap="round" d="M94.5,107.2c0,0,10.8-13.8,22.1,0"/>
		<path fill="none" stroke="#000000" stroke-width="3.6908" stroke-linecap="round" d="M138.6,107.2c0,0,10.8-13.8,22.1,0"/>
		<path fill="#FFFFFF" stroke="#000000" stroke-width="3.6908" stroke-linecap="round" stroke-linejoin="round" d="M105.2,129.4
			h43.7c0,0-3.7,19.1-21.8,18.5C108.9,147.3,105.2,129.4,105.2,129.4z"/>
		<g>
			<path fill="#FFFFFF" d="M114,210.6c1.5,0,3,1.2,2.5,3.1c-2.4,9.1-3.6,18.3-7.6,26.8c-0.4,0.9-1.1,1.3-1.9,1.3
				c-1.6,0-3.3-1.8-2.4-3.8c3.9-8.3,4.8-16.7,7.1-25.7C112.1,211.2,113,210.6,114,210.6 M114,206.9c-2.8,0-5.1,1.8-5.8,4.5
				c-0.7,2.8-1.3,5.5-1.9,8.2c-1.3,5.9-2.5,11.4-5,16.8c-0.9,2-0.8,4.2,0.4,6c1.2,1.9,3.2,3,5.4,3c2.3,0,4.2-1.3,5.2-3.4
				c3.1-6.5,4.6-13.3,6.1-19.8c0.6-2.5,1.1-5.1,1.8-7.6c0.5-1.9,0.1-3.8-1-5.2C117.9,207.9,116,206.9,114,206.9L114,206.9z"/>
			<path d="M114,210.6c-1,0-1.9,0.5-2.2,1.8c-2.3,8.9-3.2,17.3-7.1,25.7c-0.9,2,0.8,3.8,2.4,3.8c0.7,0,1.4-0.4,1.9-1.3
				c4-8.5,5.3-17.8,7.6-26.8C117,211.8,115.4,210.6,114,210.6L114,210.6z"/>
		</g>
		<g>
			<path fill="#FFFFFF" d="M142.5,210.6c1,0,1.9,0.5,2.2,1.8c2.2,8.6,3.3,17.6,7.1,25.7c0.9,2-0.8,3.8-2.4,3.8
				c-0.7,0-1.4-0.4-1.9-1.3c-4-8.5-5.3-17.8-7.6-26.8C139.5,211.8,141,210.6,142.5,210.6 M142.5,206.9
				C142.5,206.9,142.5,206.9,142.5,206.9c-2,0-3.9,0.9-5.1,2.5c-1.1,1.5-1.5,3.4-1,5.2c0.7,2.5,1.2,5.1,1.8,7.6
				c1.5,6.6,3,13.4,6.1,19.8c1,2.1,2.9,3.4,5.2,3.4c2.1,0,4.2-1.2,5.4-3c1.2-1.8,1.3-4,0.4-6c-2.5-5.3-3.7-11-5.1-17.1
				c-0.6-2.6-1.2-5.3-1.8-8C147.6,208.8,145.3,206.9,142.5,206.9L142.5,206.9z"/>
			<path d="M142.5,210.6c-1.5,0-3,1.2-2.5,3.1c2.4,9.1,3.6,18.3,7.6,26.8c0.4,0.9,1.1,1.3,1.9,1.3c1.6,0,3.3-1.8,2.4-3.8
				c-3.8-8.1-4.9-17.1-7.1-25.7C144.4,211.2,143.5,210.6,142.5,210.6L142.5,210.6z"/>
		</g>
		<g>
			<path d="M100.5,206.5c-0.6,0-1.1,0.2-1.6,0.7c-2.8,2.8-5.4,5.6-7.8,8.7c-0.8,1.1-0.2,2.8,0.9,3.4c0.4,0.2,0.8,0.3,1.2,0.3
				c0.8,0,1.6-0.5,2.2-1.2c2.1-2.8,4.5-5.2,7-7.7C104.1,208.9,102.4,206.5,100.5,206.5L100.5,206.5z"/>
		</g>
		<g>
			<path d="M154.7,206.5c-1.9,0-3.6,2.5-1.8,4.2c2.5,2.5,4.9,4.9,7,7.7c0.6,0.7,1.3,1.2,2.2,1.2c0.4,0,0.8-0.1,1.2-0.3
				c1.1-0.6,1.7-2.3,0.9-3.4c-2.4-3.1-5-5.9-7.8-8.7C155.8,206.7,155.2,206.5,154.7,206.5L154.7,206.5z"/>
		</g>
		<g>
			<path d="M128.1,216c-1.2,0-2.5,0.8-2.5,2.4c0,3,0,6,0.9,8.9c0.4,1.2,1.3,1.7,2.3,1.7c1.5,0,3-1.2,2.4-3c-0.8-2.4-0.7-5-0.7-7.5
				C130.5,216.8,129.3,216,128.1,216L128.1,216z"/>
		</g>
		<path fill="#FFFCE5" d="M125.6,157c-15,0-27.2,11.8-27.2,26.4h54.3C152.8,168.9,140.6,157,125.6,157z"/>
		<path fill="#FFFCE5" d="M103.2,55.9c-11.1-0.2-20.9-0.1-20.9,19C87.6,63,94.2,58.4,103.2,55.9z"/>
	</g>
	<g id="Bovenlaag_1_">
		<path fill="#FFFFFF" stroke="#FFFFFF" stroke-width="8.612" stroke-linejoin="round" d="M67.8,53.7l-2.9,8.9c0,0,2.3,2.8,2.9,16.5
			c0.6,13.7-1.2-26.9,4.3-29.4c5.5-2.5-5.5,2.5-5.5,2.5"/>
		<g id="ARM_8_">
			<path fill="#FFED00" d="M193.9,99.1c-0.6,0-1.3-0.1-1.9-0.4c-1.8-0.7-2.9-2.4-3-4.3c-0.7-14.6,1.9-25.8,7.3-31.5
				c2.4-2.5,5.2-3.8,8.1-3.8c4.7,0,8.6,3.5,9.6,8.8c2.4,11.8-13.6,27-16.8,29.9C196.3,98.6,195.1,99.1,193.9,99.1z"/>
			<path fill="#FFFFFF" d="M204.4,63.9c2.3,0,4.2,1.8,4.8,4.9c1.9,9.7-15.3,25.3-15.3,25.3C192.8,72.3,199.4,63.9,204.4,63.9
				 M204.4,54.1c-4.2,0-8.4,1.9-11.7,5.4c-4.5,4.7-9.6,14.6-8.6,35.2c0.2,3.8,2.5,7.2,6.1,8.6c1.2,0.5,2.5,0.7,3.8,0.7
				c2.4,0,4.8-0.9,6.6-2.6c0.2-0.2,5-4.5,9.5-10.2c7.4-9.3,10.3-17.3,8.9-24.4C217.3,59.2,211.5,54.1,204.4,54.1L204.4,54.1z"/>
			<path d="M204.4,63.9c2.3,0,4.2,1.8,4.8,4.9c1.9,9.7-15.3,25.3-15.3,25.3C192.8,72.3,199.4,63.9,204.4,63.9 M204.4,59
				c-2.9,0-5.8,1.4-8.1,3.8c-5.4,5.7-8,16.9-7.3,31.5c0.1,1.9,1.3,3.6,3,4.3c0.6,0.3,1.2,0.4,1.9,0.4c1.2,0,2.4-0.4,3.3-1.3
				c3.2-2.9,19.2-18.1,16.8-29.9C212.9,62.6,209.1,59,204.4,59L204.4,59z"/>
		</g>
		<g id="ARM_7_">
			<path fill="#FFED00" d="M61.6,99.1c-1.2,0-2.4-0.4-3.3-1.3c-3.2-2.9-19.2-18.1-16.8-29.9c1.1-5.3,4.9-8.8,9.6-8.8
				c2.9,0,5.8,1.4,8.1,3.8c5.4,5.7,8,16.9,7.3,31.5c-0.1,1.9-1.3,3.6-3,4.3C62.9,98.9,62.2,99.1,61.6,99.1z"/>
			<path fill="#FFFFFF" d="M51.1,63.9c4.9,0,11.6,8.3,10.5,30.2c0,0-17.2-15.7-15.3-25.3C46.9,65.7,48.8,63.9,51.1,63.9 M51.1,54.1
				C51.1,54.1,51.1,54.1,51.1,54.1c-7.1,0-12.9,5.1-14.5,12.8c-1.4,7.1,1.5,15.1,8.9,24.4c4.5,5.7,9.3,10,9.5,10.2
				c1.8,1.7,4.2,2.6,6.6,2.6c1.3,0,2.5-0.2,3.8-0.7c3.5-1.5,5.9-4.8,6.1-8.6c1-20.5-4.1-30.4-8.6-35.2C59.5,56,55.3,54.1,51.1,54.1
				L51.1,54.1z"/>
			<path d="M51.1,63.9c4.9,0,11.6,8.3,10.5,30.2c0,0-17.2-15.7-15.3-25.3C46.9,65.7,48.8,63.9,51.1,63.9 M51.1,59
				C51.1,59,51.1,59,51.1,59c-4.7,0-8.6,3.5-9.6,8.8c-2.4,11.8,13.6,27,16.8,29.9c0.9,0.8,2.1,1.3,3.3,1.3c0.6,0,1.3-0.1,1.9-0.4
				c1.8-0.7,2.9-2.4,3-4.3c0.7-14.6-1.9-25.8-7.3-31.5C56.9,60.4,54,59,51.1,59L51.1,59z"/>
		</g>
		<g>
			<path fill="#FFED00" d="M178.9,207.8c-2.9,0-7.4-1-11.7-6c0,0-6.7-8-6.7-8H96.1c0,0-6.7,8-6.7,8c-4.4,5-8.8,6-11.7,6
				c-3.3,0-6.5-1.3-9.4-3.7c-4.9-4.1-8.3-12.1-1.6-21.1c0-0.1,0.1-0.1,0.1-0.2l5.9-7.1V67.5c-0.1-1.6-0.2-9.6,5.2-15.5
				c3.3-3.5,7.9-5.5,13.4-5.6c0,0,51.1,0,51.1,0c3.8-1.5,9.9-4.8,12.2-8.1c0.9-1.3,2.4-2.1,4-2.1c0.3,0,0.6,0,0.9,0.1
				c1.3,0.2,2.5,1,3.2,2.1c0.9-1.4,2.5-2.2,4.1-2.2c0.3,0,0.5,0,0.8,0.1c2.2,0.4,3.9,2.1,4.1,4.3c0.2,1.7,0.3,4.4-0.2,7.2
				c1.9,0.8,3.6,2,5,3.5c5.6,5.9,5.6,14.6,5.6,16.1v106.3l7.5,9.1c0.1,0.1,0.1,0.1,0.2,0.2c6.8,9,3.4,17-1.6,21.1
				C185.4,206.5,182.2,207.8,178.9,207.8C178.9,207.8,178.9,207.8,178.9,207.8z"/>
			<path fill="#FFFFFF" d="M166.9,41.2c0,0,0.9,8.6-2.5,10.1c13.6,0,12.9,16,12.9,16v102.7v5.4L186,186c4.5,6,3,11.2-0.8,14.4
				c-2,1.6-4.1,2.5-6.3,2.5c-2.7,0-5.4-1.3-8-4.3l-8.1-9.7h-5.4H97.3h-3.5l-8.1,9.7c-2.6,3-5.4,4.3-8,4.3c-2.2,0-4.3-0.9-6.3-2.5
				c-3.8-3.2-5.3-8.4-0.8-14.4l7.1-8.5V67.4c0,0-1-15.7,13.8-16c18.8,0,51.9,0,51.9,0s11.1-4,15.4-10.1c0,0,1.5,5.8-3.1,10.1
				C155.6,51.4,164.2,47.3,166.9,41.2 M166.9,31.4c-1.4,0-2.8,0.3-4.1,0.9c-0.7-0.3-1.5-0.6-2.3-0.7c-0.6-0.1-1.2-0.2-1.8-0.2
				c-3.2,0-6.2,1.5-8.1,4.2c-1.4,2-5.8,4.5-9.2,6h-50c-0.1,0-0.1,0-0.2,0c-8.7,0.2-14,4-16.9,7.2c-6.5,7-6.6,16.6-6.5,18.9v106.4
				l-4.8,5.7c-0.1,0.1-0.2,0.2-0.3,0.4c-8.3,11-4.8,21.9,2.4,27.8c3.8,3.2,8.1,4.8,12.6,4.8c4,0,9.9-1.3,15.4-7.7
				c0.1-0.1,0.1-0.1,0.2-0.2l5.1-6.2h59.1h0.8l5.1,6.2c0.1,0.1,0.1,0.1,0.2,0.2c5.6,6.4,11.5,7.7,15.4,7.7c4.4,0,8.8-1.7,12.6-4.8
				c7.1-5.9,10.6-16.8,2.4-27.8c-0.1-0.1-0.2-0.3-0.3-0.4l-6.4-7.7v-1.8V67.6c0.1-2.5-0.1-12.5-6.9-19.6c-1-1.1-2.1-2-3.3-2.8
				c0.1-1.9,0-3.7-0.2-4.9c-0.5-4.4-3.8-8-8.2-8.7C168,31.4,167.5,31.4,166.9,31.4L166.9,31.4z"/>
			<path d="M166.9,41.2c0,0,0.9,8.6-2.5,10.1c13.6,0,12.9,16,12.9,16v102.7v5.4L186,186c4.5,6,3,11.2-0.8,14.4
				c-2,1.6-4.1,2.5-6.3,2.5c-2.7,0-5.4-1.3-8-4.3l-8.1-9.7h-5.4H97.3h-3.5l-8.1,9.7c-2.6,3-5.4,4.3-8,4.3c-2.2,0-4.3-0.9-6.3-2.5
				c-3.8-3.2-5.3-8.4-0.8-14.4l7.1-8.5V67.4c0,0-1-15.7,13.8-16c18.8,0,51.9,0,51.9,0s11.1-4,15.4-10.1c0,0,1.5,5.8-3.1,10.1
				C155.6,51.4,164.2,47.3,166.9,41.2 M166.9,36.3c-1.6,0-3.2,0.8-4.1,2.2c-0.7-1.1-1.9-1.9-3.2-2.1c-0.3-0.1-0.6-0.1-0.9-0.1
				c-1.6,0-3.1,0.8-4,2.1c-2.5,3.6-9.2,6.8-12.3,8.1h-51c0,0-0.1,0-0.1,0c-5.5,0.1-10.1,2-13.4,5.6c-5.4,5.8-5.3,13.9-5.2,15.5
				v108.2l-5.9,7.1c-0.1,0.1-0.1,0.1-0.1,0.2c-6.8,9-3.4,17,1.6,21.1c2.9,2.4,6.1,3.7,9.4,3.7c2.9,0,7.4-1,11.7-6
				c0,0,0.1-0.1,0.1-0.1l6.6-7.9h1.2h60.2h3.1l6.6,7.9c0,0,0.1,0.1,0.1,0.1c4.4,5,8.8,6,11.7,6c3.3,0,6.5-1.3,9.4-3.7
				c4.9-4.1,8.3-12.1,1.6-21.1c0-0.1-0.1-0.1-0.2-0.2l-7.5-9.1v-3.6V67.5c0-1.5,0.1-10.3-5.6-16.1c-1.4-1.5-3.1-2.7-5-3.5
				c0.5-2.8,0.3-5.5,0.2-7.2c-0.2-2.2-1.9-4-4.1-4.3C167.5,36.3,167.2,36.3,166.9,36.3L166.9,36.3z"/>
		</g>
		<g id="pet_5_">
			
				<line fill="#831F82" stroke="#FFFFFF" stroke-width="14.7633" stroke-linecap="round" stroke-linejoin="round" x1="96.1" y1="21.8" x2="83.8" y2="34.4"/>
			<g>
				<path fill="#831F82" d="M64.1,58.1c-0.9,0-1.7-0.3-2.4-0.9c-3.8-3.3-6.1-8.2-6.2-13.2c-0.1-4.9,1.9-9.5,5.6-13
					c3.2-3,7-4.6,11.1-4.6c4.3,0,8.9,1.7,13.6,4.9c0.9,0.6,1.5,1.6,1.6,2.7c0.1,1.1-0.3,2.2-1,2.9L66.8,57
					C66,57.7,65.1,58.1,64.1,58.1z"/>
				<path fill="#FFFFFF" d="M72.3,30.1c4.2,0,8.3,2.1,11.5,4.3l-19.7,20c-5.6-4.8-7.3-14.3-0.4-20.7C66.4,31.1,69.4,30.1,72.3,30.1
					 M72.3,22.7c-5.1,0-9.8,1.9-13.7,5.6c-4.5,4.2-6.9,9.8-6.8,15.8C52,50.2,54.7,56,59.3,60c1.4,1.2,3.1,1.8,4.8,1.8
					c1.9,0,3.8-0.7,5.3-2.2l19.7-20c1.5-1.6,2.3-3.7,2.1-5.9c-0.2-2.2-1.4-4.1-3.1-5.4C82.6,24.6,77.4,22.7,72.3,22.7L72.3,22.7z"/>
				<path fill="none" stroke="#000000" stroke-width="3.6908" stroke-linejoin="round" d="M83.8,34.4c-5.3-3.7-13.3-7.1-20.1-0.7
					c-6.8,6.4-5.2,15.9,0.4,20.7L83.8,34.4z"/>
			</g>
			
				<line fill="#831F82" stroke="#000000" stroke-width="3.6908" stroke-linecap="round" stroke-linejoin="round" x1="83.8" y1="34.4" x2="96.1" y2="21.8"/>
		</g>
		<path fill="none" stroke="#000000" stroke-width="3.6908" stroke-linecap="round" d="M94.5,107.2c0,0,10.8-13.8,22.1,0"/>
		<path fill="none" stroke="#000000" stroke-width="3.6908" stroke-linecap="round" d="M138.6,107.2c0,0,10.8-13.8,22.1,0"/>
		<path fill="#FFFFFF" stroke="#000000" stroke-width="3.6908" stroke-linecap="round" stroke-linejoin="round" d="M105.2,129.4
			h43.7c0,0-3.7,19.1-21.8,18.5C108.9,147.3,105.2,129.4,105.2,129.4z"/>
		<g>
			<path d="M114,210.6c-1,0-1.9,0.5-2.2,1.8c-2.3,8.9-3.2,17.3-7.1,25.7c-0.9,2,0.8,3.8,2.4,3.8c0.7,0,1.4-0.4,1.9-1.3
				c4-8.5,5.3-17.8,7.6-26.8C117,211.8,115.4,210.6,114,210.6L114,210.6z"/>
		</g>
		<g>
			<path d="M142.5,210.6c-1.5,0-3,1.2-2.5,3.1c2.4,9.1,3.6,18.3,7.6,26.8c0.4,0.9,1.1,1.3,1.9,1.3c1.6,0,3.3-1.8,2.4-3.8
				c-3.8-8.1-4.9-17.1-7.1-25.7C144.4,211.2,143.5,210.6,142.5,210.6L142.5,210.6z"/>
		</g>
		<g>
			<path d="M100.5,206.5c-0.6,0-1.1,0.2-1.6,0.7c-2.8,2.8-5.4,5.6-7.8,8.7c-0.8,1.1-0.2,2.8,0.9,3.4c0.4,0.2,0.8,0.3,1.2,0.3
				c0.8,0,1.6-0.5,2.2-1.2c2.1-2.8,4.5-5.2,7-7.7C104.1,208.9,102.4,206.5,100.5,206.5L100.5,206.5z"/>
		</g>
		<g>
			<path d="M154.7,206.5c-1.9,0-3.6,2.5-1.8,4.2c2.5,2.5,4.9,4.9,7,7.7c0.6,0.7,1.3,1.2,2.2,1.2c0.4,0,0.8-0.1,1.2-0.3
				c1.1-0.6,1.7-2.3,0.9-3.4c-2.4-3.1-5-5.9-7.8-8.7C155.8,206.7,155.2,206.5,154.7,206.5L154.7,206.5z"/>
		</g>
		<g>
			<path d="M128.1,216c-1.2,0-2.5,0.8-2.5,2.4c0,3,0,6,0.9,8.9c0.4,1.2,1.3,1.7,2.3,1.7c1.5,0,3-1.2,2.4-3c-0.8-2.4-0.7-5-0.7-7.5
				C130.5,216.8,129.3,216,128.1,216L128.1,216z"/>
		</g>
		<path fill="#FFFCE5" d="M125.6,157c-15,0-27.2,11.8-27.2,26.4h54.3C152.8,168.9,140.6,157,125.6,157z"/>
		<path fill="#FFFCE5" d="M103.2,55.9c-11.1-0.2-20.9-0.1-20.9,19C87.6,63,94.2,58.4,103.2,55.9z"/>
	</g>
</g>
</svg>
